<?xml version="1.0" encoding="UTF-8" standalone="no"?><svg xmlns="http://www.w3.org/2000/svg" xmlns:xlink="http://www.w3.org/1999/xlink" contentScriptType="application/ecmascript" contentStyleType="text/css" height="400.4635px" preserveAspectRatio="none" style="width:260px;height:400px;" version="1.1" viewBox="0 0 260 400" width="260.1301px" zoomAndPan="magnify"><defs><filter height="300%" id="fc65duzjmhqpe" width="300%" x="-1" y="-1"><feGaussianBlur result="blurOut" stdDeviation="2.2818433015420267"/><feColorMatrix in="blurOut" result="blurOut2" type="matrix" values="0 0 0 0 0 0 0 0 0 0 0 0 0 0 0 0 0 0 .4 0"/><feOffset dx="4.5636866030840535" dy="4.5636866030840535" in="blurOut2" result="blurOut3"/><feBlend in="SourceGraphic" in2="blurOut3" mode="normal"/></filter></defs><g><text fill="#888888" font-family="Liberation Sans" font-size="11.4092" lengthAdjust="spacing" textLength="150.6017" x="94.7045" y="10.5903">Classic authorization model</text><text fill="#000000" font-family="Liberation Sans" font-size="20.5366" lengthAdjust="spacing" textLength="49.0596" x="98.1232" y="32.3436">roles</text><!--MD5=[a3638c1e5b65d287ecad7f06f5c0f212]
class Role--><rect fill="#FEFECE" filter="url(#fc65duzjmhqpe)" height="54.7642" id="Role" style="stroke:#A80036;stroke-width:1.71138247615652;" width="67.3144" x="176.8508" y="187.7886"/><ellipse cx="193.9647" cy="206.0433" fill="#ADD1B2" rx="12.5501" ry="12.5501" style="stroke:#A80036;stroke-width:1.1409216507710134;"/><path d="M197.3518,212.4788 Q196.6922,212.8175 195.9613,212.978 Q195.2304,213.1563 194.4282,213.1563 Q191.5758,213.1563 190.0606,211.2844 Q188.5631,209.3948 188.5631,205.8294 Q188.5631,202.264 190.0606,200.3744 Q191.5758,198.4847 194.4282,198.4847 Q195.2304,198.4847 195.9613,198.663 Q196.71,198.8413 197.3518,199.18 L197.3518,202.2818 Q196.6387,201.6222 195.9613,201.3192 Q195.2838,200.9983 194.5708,200.9983 Q193.0377,200.9983 192.2533,202.2284 Q191.4689,203.4406 191.4689,205.8294 Q191.4689,208.2182 192.2533,209.4483 Q193.0377,210.6605 194.5708,210.6605 Q195.2838,210.6605 195.9613,210.3574 Q196.6387,210.0365 197.3518,209.3769 L197.3518,212.4788 Z " fill="#000000"/><text fill="#000000" font-family="Liberation Sans" font-size="13.6911" lengthAdjust="spacing" textLength="30.8049" x="209.9376" y="210.783">Role</text><line style="stroke:#A80036;stroke-width:1.71138247615652;" x1="177.9917" x2="243.0243" y1="224.2981" y2="224.2981"/><line style="stroke:#A80036;stroke-width:1.71138247615652;" x1="177.9917" x2="243.0243" y1="233.4254" y2="233.4254"/><!--MD5=[4899ead58b536ff968fbcbdca857d192]
class Function--><rect fill="#FEFECE" filter="url(#fc65duzjmhqpe)" height="54.7642" id="Function" style="stroke:#A80036;stroke-width:1.71138247615652;" width="98.1193" x="88.4294" y="330.4038"/><ellipse cx="105.5432" cy="348.6585" fill="#ADD1B2" rx="12.5501" ry="12.5501" style="stroke:#A80036;stroke-width:1.1409216507710134;"/><path d="M108.9303,355.094 Q108.2707,355.4327 107.5398,355.5932 Q106.8089,355.7715 106.0067,355.7715 Q103.1544,355.7715 101.6391,353.8996 Q100.1417,352.01 100.1417,348.4446 Q100.1417,344.8792 101.6391,342.9896 Q103.1544,341.0999 106.0067,341.0999 Q106.8089,341.0999 107.5398,341.2782 Q108.2886,341.4565 108.9303,341.7952 L108.9303,344.897 Q108.2173,344.2375 107.5398,343.9344 Q106.8624,343.6135 106.1493,343.6135 Q104.6162,343.6135 103.8318,344.8436 Q103.0475,346.0558 103.0475,348.4446 Q103.0475,350.8334 103.8318,352.0635 Q104.6162,353.2757 106.1493,353.2757 Q106.8624,353.2757 107.5398,352.9726 Q108.2173,352.6518 108.9303,351.9922 L108.9303,355.094 Z " fill="#000000"/><text fill="#000000" font-family="Liberation Sans" font-size="13.6911" lengthAdjust="spacing" textLength="61.6098" x="121.5161" y="353.3983">Function</text><line style="stroke:#A80036;stroke-width:1.71138247615652;" x1="89.5703" x2="185.4077" y1="366.9133" y2="366.9133"/><line style="stroke:#A80036;stroke-width:1.71138247615652;" x1="89.5703" x2="185.4077" y1="376.0406" y2="376.0406"/><!--MD5=[41314a0efc36828092cff9ebad2fcafd]
class Group--><rect fill="#FEFECE" filter="url(#fc65duzjmhqpe)" height="54.7642" id="Group" style="stroke:#A80036;stroke-width:1.71138247615652;" width="79.8645" x="96.4158" y="45.1734"/><ellipse cx="113.5297" cy="63.4281" fill="#ADD1B2" rx="12.5501" ry="12.5501" style="stroke:#A80036;stroke-width:1.1409216507710134;"/><path d="M116.9168,69.8636 Q116.2572,70.2023 115.5263,70.3628 Q114.7954,70.541 113.9932,70.541 Q111.1409,70.541 109.6256,68.6692 Q108.1281,66.7796 108.1281,63.2142 Q108.1281,59.6488 109.6256,57.7592 Q111.1409,55.8695 113.9932,55.8695 Q114.7954,55.8695 115.5263,56.0478 Q116.275,56.226 116.9168,56.5648 L116.9168,59.6666 Q116.2037,59.007 115.5263,58.704 Q114.8489,58.3831 114.1358,58.3831 Q112.6027,58.3831 111.8183,59.6132 Q111.0339,60.8254 111.0339,63.2142 Q111.0339,65.603 111.8183,66.8331 Q112.6027,68.0453 114.1358,68.0453 Q114.8489,68.0453 115.5263,67.7422 Q116.2037,67.4213 116.9168,66.7617 L116.9168,69.8636 Z " fill="#000000"/><text fill="#000000" font-family="Liberation Sans" font-size="13.6911" lengthAdjust="spacing" textLength="43.355" x="129.5026" y="68.1678">Group</text><line style="stroke:#A80036;stroke-width:1.71138247615652;" x1="97.5568" x2="175.1394" y1="81.6829" y2="81.6829"/><line style="stroke:#A80036;stroke-width:1.71138247615652;" x1="97.5568" x2="175.1394" y1="90.8102" y2="90.8102"/><!--MD5=[3fd616f346a44cd59a91eb10b19e157c]
class User--><rect fill="#FEFECE" filter="url(#fc65duzjmhqpe)" height="54.7642" id="User" style="stroke:#A80036;stroke-width:1.71138247615652;" width="69.5962" x="28.531" y="187.7886"/><ellipse cx="45.6448" cy="206.0433" fill="#ADD1B2" rx="12.5501" ry="12.5501" style="stroke:#A80036;stroke-width:1.1409216507710134;"/><path d="M49.0319,212.4788 Q48.3724,212.8175 47.6414,212.978 Q46.9105,213.1563 46.1083,213.1563 Q43.256,213.1563 41.7407,211.2844 Q40.2433,209.3948 40.2433,205.8294 Q40.2433,202.264 41.7407,200.3744 Q43.256,198.4847 46.1083,198.4847 Q46.9105,198.4847 47.6414,198.663 Q48.3902,198.8413 49.0319,199.18 L49.0319,202.2818 Q48.3189,201.6222 47.6414,201.3192 Q46.964,200.9983 46.251,200.9983 Q44.7178,200.9983 43.9335,202.2284 Q43.1491,203.4406 43.1491,205.8294 Q43.1491,208.2182 43.9335,209.4483 Q44.7178,210.6605 46.251,210.6605 Q46.964,210.6605 47.6414,210.3574 Q48.3189,210.0365 49.0319,209.3769 L49.0319,212.4788 Z " fill="#000000"/><text fill="#000000" font-family="Liberation Sans" font-size="13.6911" lengthAdjust="spacing" textLength="33.0867" x="61.6177" y="210.783">User</text><line style="stroke:#A80036;stroke-width:1.71138247615652;" x1="29.6719" x2="96.9863" y1="224.2981" y2="224.2981"/><line style="stroke:#A80036;stroke-width:1.71138247615652;" x1="29.6719" x2="96.9863" y1="233.4254" y2="233.4254"/><!--MD5=[f9e30ef63f4399af269cdbfba1724bfd]
reverse link Role to Function--><path codeLine="5" d="M192.8623,256.6912 C187.1363,269.4958 180.5613,283.5454 173.9985,296.1761 C168.094,307.5398 161.0307,319.7327 154.6968,330.248 " fill="none" id="Role-backto-Function" style="stroke:#A80036;stroke-width:1.1409216507710134;"/><polygon fill="#FFFFFF" points="198.9201,242.9054,191.988,247.3365,193.4121,255.4396,200.3442,251.0085,198.9201,242.9054" style="stroke:#A80036;stroke-width:1.1409216507710134;"/><text fill="#000000" font-family="Liberation Sans" font-size="14.832" lengthAdjust="spacing" textLength="61.6098" x="183.1259" y="291.6888">contains</text><text fill="#000000" font-family="Liberation Sans" font-size="14.832" lengthAdjust="spacing" textLength="35.3686" x="156.4165" y="265.5373">0 .. *</text><text fill="#000000" font-family="Liberation Sans" font-size="14.832" lengthAdjust="spacing" textLength="35.3686" x="119.2061" y="317.6717">0 .. *</text><!--MD5=[48e49867ff4e7797e189bc497b1cafd3]
reverse link Group to User--><path codeLine="6" d="M101.2408,112.1627 C96.0797,119.1855 91.1954,126.6612 87.2885,134.1653 C78.5518,150.9458 72.5362,171.3838 68.7178,187.5322 " fill="none" id="Group-backto-User" style="stroke:#A80036;stroke-width:1.1409216507710134;"/><polygon fill="#FFFFFF" points="110.6781,100.1027,102.8653,102.6814,102.2407,110.8849,110.0535,108.3063,110.6781,100.1027" style="stroke:#A80036;stroke-width:1.1409216507710134;"/><text fill="#000000" font-family="Liberation Sans" font-size="14.832" lengthAdjust="spacing" textLength="61.6098" x="88.4294" y="149.0736">contains</text><text fill="#000000" font-family="Liberation Sans" font-size="14.832" lengthAdjust="spacing" textLength="35.3686" x="64.7419" y="122.6889">0 .. *</text><text fill="#000000" font-family="Liberation Sans" font-size="14.832" lengthAdjust="spacing" textLength="35.3686" x="30.3522" y="175.3816">0 .. *</text><!--MD5=[70c37dc9bfbc8656942103c36f1181e4]
link User to Role--><path codeLine="7" d="M98.2085,215.1707 C119.9015,215.1707 147.8683,215.1707 170.4657,215.1707 " fill="none" id="User-to-Role" style="stroke:#A80036;stroke-width:1.1409216507710134;"/><polygon fill="#A80036" points="176.3868,215.1707,166.1185,210.607,170.6822,215.1707,166.1185,219.7344,176.3868,215.1707" style="stroke:#A80036;stroke-width:1.1409216507710134;"/><text fill="#000000" font-family="Liberation Sans" font-size="14.832" lengthAdjust="spacing" textLength="36.5095" x="119.2343" y="207.2606">owns</text><text fill="#000000" font-family="Liberation Sans" font-size="14.832" lengthAdjust="spacing" textLength="35.3686" x="107.2428" y="230.4218">0 .. *</text><text fill="#000000" font-family="Liberation Sans" font-size="14.832" lengthAdjust="spacing" textLength="35.3686" x="132.438" y="230.3679">0 .. *</text><!--MD5=[7c971a12dbe97c503fa45077abba59d9]
link User to Function--><path codeLine="8" d="M49.818,242.7594 C43.8307,259.0808 39.8711,279.7126 48.4971,296.1761 C56.2644,311.0005 69.3983,322.9669 83.2246,332.2698 " fill="none" id="User-to-Function" style="stroke:#A80036;stroke-width:1.1409216507710134;"/><polygon fill="#A80036" points="88.3412,335.5769,82.195,326.17,83.5503,332.4802,77.2402,333.8354,88.3412,335.5769" style="stroke:#A80036;stroke-width:1.1409216507710134;"/><text fill="#000000" font-family="Liberation Sans" font-size="14.832" lengthAdjust="spacing" textLength="114.0922" x="49.6381" y="291.6888">has privilege on</text><text fill="#000000" font-family="Liberation Sans" font-size="14.832" lengthAdjust="spacing" textLength="35.3686" x="6.8455" y="265.3558">0 .. *</text><text fill="#000000" font-family="Liberation Sans" font-size="14.832" lengthAdjust="spacing" textLength="35.3686" x="43.9921" y="328.1065">0 .. *</text><!--MD5=[1e14c8ef10dff6cf2b1eb0fcf4c553fc]
link Group to Role--><path codeLine="9" d="M150.6469,100.0532 C162.9069,123.63 180.5917,157.6394 193.5609,182.58 " fill="none" id="Group-to-Role" style="stroke:#A80036;stroke-width:1.1409216507710134;"/><polygon fill="#A80036" points="196.2531,187.7574,195.5649,176.5417,193.6213,182.6962,187.4669,180.7526,196.2531,187.7574" style="stroke:#A80036;stroke-width:1.1409216507710134;"/><text fill="#000000" font-family="Liberation Sans" font-size="14.832" lengthAdjust="spacing" textLength="36.5095" x="178.5622" y="149.0736">owns</text><text fill="#000000" font-family="Liberation Sans" font-size="14.832" lengthAdjust="spacing" textLength="9.1274" x="143.8925" y="122.6273">1</text><text fill="#000000" font-family="Liberation Sans" font-size="14.832" lengthAdjust="spacing" textLength="35.3686" x="152.7001" y="175.213">0 .. *</text><!--MD5=[54b1a2d1f5d8cac362a4ccc94ff8d333]
@startuml
title roles
header Classic authorization model
skinparam defaultFontName Liberation Sans
scale 500 * 400
Role "0 .. *" o- - "0 .. *" Function: "contains"
Group "0 .. *" o- - "0 .. *" User: "contains"
User "0 .. *" -> "0 .. *" Role: "owns"
User "0 .. *" -> "0 .. *" Function: "has privilege on"
Group "1" -> "0 .. *" Role: "owns"
@enduml

PlantUML version 1.2021.00(Sun Jan 10 10:25:05 UTC 2021)
(GPL source distribution)
Java Runtime: OpenJDK Runtime Environment
JVM: OpenJDK 64-Bit Server VM
Default Encoding: UTF-8
Language: en
Country: null
--></g></svg>