<svg xmlns="http://www.w3.org/2000/svg" xmlns:xlink="http://www.w3.org/1999/xlink" contentStyleType="text/css" data-diagram-type="CLASS" height="400.6233px" preserveAspectRatio="none" style="width:260px;height:400px;background:#FFFFFF;" version="1.1" viewBox="0 0 260 400" width="260.0319px" zoomAndPan="magnify"><defs/><g><text fill="#888888" font-family="Liberation Sans" font-size="12.4417" lengthAdjust="spacing" textLength="152.1377" x="91.3009" y="11.6702">Classic authorization model</text><!--class Role--><g id="elem_Role"><rect fill="#F1F1F1" height="59.7202" id="Role" rx="3.1104" ry="3.1104" style="stroke:#181818;stroke-width:0.6221;" width="75.6369" x="176.5108" y="178.5374"/><ellipse cx="195.1734" cy="198.4442" fill="#ADD1B2" rx="13.6859" ry="13.6859" style="stroke:#181818;stroke-width:1.2442;"/><path d="M188.9526,199.8828 C188.9526,202.9932 191.6159,205.2482 195.2512,205.2482 C196.7869,205.2482 198.245,204.8789 199.1781,204.2374 C199.9363,203.7125 200.3445,203.1876 200.3445,202.6821 C200.3445,202.0989 199.8196,201.5935 199.1975,201.5935 C198.9059,201.5935 198.6338,201.6907 198.381,201.9434 C197.8367,202.4877 197.8367,202.4877 197.6229,202.6044 C197.0591,202.896 196.2621,203.0709 195.3095,203.0709 C192.8211,203.0709 191.2271,201.8073 191.2271,199.8439 L191.2271,198.5414 C191.2271,196.4224 192.7434,194.9255 194.8624,194.9255 C195.5817,194.9255 196.3009,195.1005 196.8841,195.4115 C197.4674,195.742 197.6812,195.9753 197.759,196.4224 C197.9145,197.2583 198.2255,197.5694 198.8865,197.5694 C199.2364,197.5694 199.5863,197.3944 199.8196,197.1222 C199.9751,196.9084 200.0335,196.6946 200.0335,196.1502 L200.0335,194.4589 C200.0335,193.9341 200.014,193.7591 199.8585,193.5453 C199.6447,193.2342 199.2947,193.0398 198.8865,193.0398 C198.4977,193.0398 198.245,193.1759 197.9728,193.5064 C196.5148,192.8843 195.9705,192.7482 194.7846,192.7482 C191.4603,192.7482 188.9526,195.256 188.9526,198.5219 L188.9526,199.8828 Z " fill="#000000"/><text fill="#000000" font-family="Liberation Sans" font-size="17.4184" lengthAdjust="spacing" textLength="35.8234" x="212.5918" y="204.7677">Role</text><line style="stroke:#181818;stroke-width:0.6221;" x1="177.755" x2="250.9036" y1="218.3509" y2="218.3509"/><line style="stroke:#181818;stroke-width:0.6221;" x1="177.755" x2="250.9036" y1="228.3043" y2="228.3043"/></g><!--class Function--><g id="elem_Function"><rect fill="#F1F1F1" height="59.7202" id="Function" rx="3.1104" ry="3.1104" style="stroke:#181818;stroke-width:0.6221;" width="106.6209" x="81.3939" y="332.8147"/><ellipse cx="100.0565" cy="352.7215" fill="#ADD1B2" rx="13.6859" ry="13.6859" style="stroke:#181818;stroke-width:1.2442;"/><path d="M93.8356,354.16 C93.8356,357.2705 96.4989,359.5255 100.1342,359.5255 C101.67,359.5255 103.128,359.1562 104.0612,358.5146 C104.8193,357.9898 105.2276,357.4649 105.2276,356.9594 C105.2276,356.3762 104.7027,355.8708 104.0806,355.8708 C103.789,355.8708 103.5168,355.968 103.2641,356.2207 C102.7198,356.765 102.7198,356.765 102.5059,356.8817 C101.9422,357.1733 101.1451,357.3482 100.1926,357.3482 C97.7042,357.3482 96.1101,356.0846 96.1101,354.1212 L96.1101,352.8187 C96.1101,350.6997 97.6265,349.2028 99.7454,349.2028 C100.4647,349.2028 101.184,349.3778 101.7672,349.6888 C102.3504,350.0193 102.5643,350.2526 102.642,350.6997 C102.7975,351.5356 103.1086,351.8467 103.7696,351.8467 C104.1195,351.8467 104.4694,351.6717 104.7027,351.3995 C104.8582,351.1857 104.9165,350.9719 104.9165,350.4275 L104.9165,348.7362 C104.9165,348.2114 104.8971,348.0364 104.7416,347.8225 C104.5277,347.5115 104.1778,347.3171 103.7696,347.3171 C103.3808,347.3171 103.128,347.4532 102.8559,347.7837 C101.3979,347.1616 100.8535,347.0255 99.6677,347.0255 C96.3434,347.0255 93.8356,349.5333 93.8356,352.7992 L93.8356,354.16 Z " fill="#000000"/><text fill="#000000" font-family="Liberation Sans" font-size="17.4184" lengthAdjust="spacing" textLength="66.8074" x="117.4749" y="359.045">Function</text><line style="stroke:#181818;stroke-width:0.6221;" x1="82.6381" x2="186.7706" y1="372.6282" y2="372.6282"/><line style="stroke:#181818;stroke-width:0.6221;" x1="82.6381" x2="186.7706" y1="382.5816" y2="382.5816"/></g><!--class Group--><g id="elem_Group"><rect fill="#F1F1F1" height="59.7202" id="Group" rx="3.1104" ry="3.1104" style="stroke:#181818;stroke-width:0.6221;" width="88.2244" x="90.5883" y="24.2601"/><ellipse cx="109.2509" cy="44.1669" fill="#ADD1B2" rx="13.6859" ry="13.6859" style="stroke:#181818;stroke-width:1.2442;"/><path d="M103.03,45.6055 C103.03,48.7159 105.6934,50.9709 109.3287,50.9709 C110.8644,50.9709 112.3225,50.6016 113.2556,49.9601 C114.0138,49.4352 114.422,48.9103 114.422,48.4048 C114.422,47.8216 113.8971,47.3162 113.275,47.3162 C112.9834,47.3162 112.7113,47.4134 112.4585,47.6661 C111.9142,48.2104 111.9142,48.2104 111.7004,48.3271 C111.1366,48.6187 110.3396,48.7936 109.387,48.7936 C106.8986,48.7936 105.3046,47.53 105.3046,45.5666 L105.3046,44.2641 C105.3046,42.1451 106.8209,40.6482 108.9399,40.6482 C109.6592,40.6482 110.3784,40.8232 110.9616,41.1342 C111.5449,41.4647 111.7587,41.698 111.8365,42.1451 C111.992,42.981 112.303,43.2921 112.964,43.2921 C113.3139,43.2921 113.6638,43.1171 113.8971,42.8449 C114.0526,42.6311 114.111,42.4173 114.111,41.8729 L114.111,40.1816 C114.111,39.6568 114.0915,39.4818 113.936,39.268 C113.7222,38.9569 113.3722,38.7625 112.964,38.7625 C112.5752,38.7625 112.3225,38.8986 112.0503,39.2291 C110.5923,38.607 110.048,38.4709 108.8621,38.4709 C105.5378,38.4709 103.03,40.9787 103.03,44.2446 L103.03,45.6055 Z " fill="#000000"/><text fill="#000000" font-family="Liberation Sans" font-size="17.4184" lengthAdjust="spacing" textLength="48.4109" x="126.6693" y="50.4904">Group</text><line style="stroke:#181818;stroke-width:0.6221;" x1="91.8325" x2="177.5686" y1="64.0736" y2="64.0736"/><line style="stroke:#181818;stroke-width:0.6221;" x1="91.8325" x2="177.5686" y1="74.027" y2="74.027"/></g><!--class User--><g id="elem_User"><rect fill="#F1F1F1" height="59.7202" id="User" rx="3.1104" ry="3.1104" style="stroke:#181818;stroke-width:0.6221;" width="76.5895" x="16.7841" y="178.5374"/><ellipse cx="35.4466" cy="198.4442" fill="#ADD1B2" rx="13.6859" ry="13.6859" style="stroke:#181818;stroke-width:1.2442;"/><path d="M29.2258,199.8828 C29.2258,202.9932 31.8891,205.2482 35.5244,205.2482 C37.0602,205.2482 38.5182,204.8789 39.4513,204.2374 C40.2095,203.7125 40.6177,203.1876 40.6177,202.6821 C40.6177,202.0989 40.0928,201.5935 39.4708,201.5935 C39.1792,201.5935 38.907,201.6907 38.6543,201.9434 C38.1099,202.4877 38.1099,202.4877 37.8961,202.6044 C37.3323,202.896 36.5353,203.0709 35.5827,203.0709 C33.0944,203.0709 31.5003,201.8073 31.5003,199.8439 L31.5003,198.5414 C31.5003,196.4224 33.0166,194.9255 35.1356,194.9255 C35.8549,194.9255 36.5742,195.1005 37.1574,195.4115 C37.7406,195.742 37.9544,195.9753 38.0322,196.4224 C38.1877,197.2583 38.4987,197.5694 39.1597,197.5694 C39.5096,197.5694 39.8596,197.3944 40.0928,197.1222 C40.2484,196.9084 40.3067,196.6946 40.3067,196.1502 L40.3067,194.4589 C40.3067,193.9341 40.2872,193.7591 40.1317,193.5453 C39.9179,193.2342 39.568,193.0398 39.1597,193.0398 C38.7709,193.0398 38.5182,193.1759 38.246,193.5064 C36.788,192.8843 36.2437,192.7482 35.0578,192.7482 C31.7336,192.7482 29.2258,195.256 29.2258,198.5219 L29.2258,199.8828 Z " fill="#000000"/><text fill="#000000" font-family="Liberation Sans" font-size="17.4184" lengthAdjust="spacing" textLength="36.776" x="52.865" y="204.7677">User</text><line style="stroke:#181818;stroke-width:0.6221;" x1="18.0282" x2="92.1294" y1="218.3509" y2="218.3509"/><line style="stroke:#181818;stroke-width:0.6221;" x1="18.0282" x2="92.1294" y1="228.3043" y2="228.3043"/></g><!--reverse link Role to Function--><g id="link_Role_Function"><path codeLine="4" d="M192.3395,251.9135 C183.6801,268.5605 179.4595,276.5906 169.5435,295.4896 C163.2231,307.5207 156.2184,320.7836 150.1717,332.23 " fill="#FFFFFF" fill-opacity="0.00000" id="Role-backto-Function" style="stroke:#181818;stroke-width:1.2442;"/><polygon fill="#FFFFFF" fill-opacity="0.00000" points="199.2294,238.6683,191.3694,242.9942,192.3395,251.9135,200.1995,247.5875,199.2294,238.6683" style="stroke:#181818;stroke-width:1.2442;"/><text fill="#000000" font-family="Liberation Sans" font-size="16.1742" lengthAdjust="spacing" textLength="60.2427" x="180.629" y="291.9982">contains</text><text fill="#000000" font-family="Liberation Sans" font-size="16.1742" lengthAdjust="spacing" textLength="33.2646" x="159.3695" y="263.4847">0 .. *</text><text fill="#000000" font-family="Liberation Sans" font-size="16.1742" lengthAdjust="spacing" textLength="33.2646" x="117.7564" y="319.6188">0 .. *</text></g><!--reverse link Group to User--><g id="link_Group_User"><path codeLine="5" d="M110.4031,97.3484 C103.8837,108.7823 103.8388,109.1002 97.3815,121.3055 C87.5152,139.9557 77.0269,161.231 68.9646,177.9402 " fill="#FFFFFF" fill-opacity="0.00000" id="Group-backto-User" style="stroke:#181818;stroke-width:1.2442;"/><polygon fill="#FFFFFF" fill-opacity="0.00000" points="117.7984,84.3785,109.7775,88.3984,110.4031,97.3484,118.424,93.3285,117.7984,84.3785" style="stroke:#181818;stroke-width:1.2442;"/><text fill="#000000" font-family="Liberation Sans" font-size="16.1742" lengthAdjust="spacing" textLength="60.2427" x="98.6257" y="137.7209">contains</text><text fill="#000000" font-family="Liberation Sans" font-size="16.1742" lengthAdjust="spacing" textLength="33.2646" x="77.4992" y="109.1919">0 .. *</text><text fill="#000000" font-family="Liberation Sans" font-size="16.1742" lengthAdjust="spacing" textLength="33.2646" x="36.1243" y="165.3257">0 .. *</text></g><!--link User to Role--><g id="link_User_Role"><path codeLine="6" d="M93.6241,208.3976 C118.6693,208.3976 143.702,208.3976 168.6726,208.3976 " fill="#FFFFFF" fill-opacity="0.00000" id="User-to-Role" style="stroke:#181818;stroke-width:1.2442;"/><polygon fill="#181818" points="176.1376,208.3976,164.94,203.4209,169.9167,208.3976,164.94,213.3742,176.1376,208.3976" style="stroke:#181818;stroke-width:1.2442;"/><text fill="#000000" font-family="Liberation Sans" font-size="16.1742" lengthAdjust="spacing" textLength="37.7583" x="116.2805" y="201.1737">owns</text><text fill="#000000" font-family="Liberation Sans" font-size="16.1742" lengthAdjust="spacing" textLength="33.2646" x="103.4526" y="225.2252">0 .. *</text><text fill="#000000" font-family="Liberation Sans" font-size="16.1742" lengthAdjust="spacing" textLength="33.2646" x="133.176" y="225.3996">0 .. *</text></g><!--link User to Function--><g id="link_User_Function"><path codeLine="7" d="M45.8852,238.4941 C42.0283,255.8627 40.1994,277.9343 48.8588,295.4896 C56.0875,310.1584 62.3731,317.9478 75.3622,327.8141 " fill="#FFFFFF" fill-opacity="0.00000" id="User-to-Function" style="stroke:#181818;stroke-width:1.2442;"/><polygon fill="#181818" points="81.3068,332.3295,75.4002,321.5934,76.353,328.5667,69.3797,329.5195,81.3068,332.3295" style="stroke:#181818;stroke-width:1.2442;"/><text fill="#000000" font-family="Liberation Sans" font-size="16.1742" lengthAdjust="spacing" textLength="113.2907" x="50.103" y="291.9982">has privilege on</text><text fill="#000000" font-family="Liberation Sans" font-size="16.1742" lengthAdjust="spacing" textLength="33.2646" x="7.465" y="263.2681">0 .. *</text><text fill="#000000" font-family="Liberation Sans" font-size="16.1742" lengthAdjust="spacing" textLength="33.2646" x="38.3753" y="324.1925">0 .. *</text></g><!--link Group to Role--><g id="link_Group_Role"><path codeLine="8" d="M149.8731,84.2665 C164.0318,111.2775 181.6036,144.7661 195.7498,171.7398 " fill="#FFFFFF" fill-opacity="0.00000" id="Group-to-Role" style="stroke:#181818;stroke-width:1.2442;"/><polygon fill="#181818" points="199.217,178.3508,198.4236,166.1228,196.3277,172.8416,189.6089,170.7457,199.217,178.3508" style="stroke:#181818;stroke-width:1.2442;"/><text fill="#000000" font-family="Liberation Sans" font-size="16.1742" lengthAdjust="spacing" textLength="37.7583" x="180.5295" y="137.7209">owns</text><text fill="#000000" font-family="Liberation Sans" font-size="16.1742" lengthAdjust="spacing" textLength="8.9953" x="143.8357" y="109.0527">1</text><text fill="#000000" font-family="Liberation Sans" font-size="16.1742" lengthAdjust="spacing" textLength="33.2646" x="158.198" y="165.3695">0 .. *</text></g><!--SRC=[VOwz2i9048JxUuhboa322TfOs0ZQY8NY0woNrInURiFzAFZq9WX6YzZjx7upEmrXJG7M3cDa2vXJ8u6Vc5Wyj5AJK_76liE0BTHqmUpIHdpQOqkmupE5Dtf47rMqw0WMna01SsFKGNgf3LGL51gaB4UnoTuEnYLesySX-wZLDaZk9WodIE477XRZkLoDy_2sH-Nn7_kgq624Bl2T7Lq9n7-gpAQJNm00]--></g></svg>